# xmcd
#
# Track frame offsets:
#	150
#	13192
#	26820
#	41475
#	54432
#	67230
#	81765
#	94682
#	109717
#	121487
#
# Disc length: 1775 seconds
#
# Revision: 1
# Processed by: cddbd v1.5.2PL0 Copyright (c) Steve Scherf et al.
# Submitted via: EZCDAudioConverter 6.0.5.1
#
DISCID=8306ed0a
DTITLE=Mel Street - Mel Street Greatest Hits
DYEAR=1994
DGENRE=Country
TTITLE0=Lovin' On Back Streets
TTITLE1=Rodeo Bum
TTITLE2=Borrowed Angel
TTITLE3=Slip Away (with Sandy Powell)
TTITLE4=Burning Bridges
TTITLE5=I Met A Friend Of Yours Today
TTITLE6=Who'll Turn Out The Lights
TTITLE7=Looking Out My Window Through The Pain
TTITLE8=Tonight Let's Sleep On It, Baby
TTITLE9=Let The Four Winds Blow
EXTD=
EXTT0=
EXTT1=
EXTT2=
EXTT3=
EXTT4=
EXTT5=
EXTT6=
EXTT7=
EXTT8=
EXTT9=
PLAYORDER=
